# xmcd
#
# Track frame offsets:
# 150
# 12486
# 26334
# 42829
# 59890
# 75736
# 89504
# 105944
# 119820
# 133858
# 147922
# 160285
#
# Disc length: 2332 seconds
#
#
# Revision: 0
# Processed by: cddbd v1.5.1PL0 Copyright (c) Steve Scherf et al.
# Submitted via: FreeRIP 2.942 
#
DISCID=a7091a0c
DTITLE=Banda Passarela - Ame Quem Te Ama
DYEAR=2005
DGENRE=Country
TTITLE0=Ninguém Segura o Coração -B. Passarela
TTITLE1=Ame Quem Te Ama-B. Passarela
TTITLE2=Fique-B. Passarela
TTITLE3=Bar Da Esquina-B. Passarela
TTITLE4=Agora Sou Mais Eu-B. Passarela
TTITLE5=Não Sou Bobo-B. Passarela
TTITLE6=Tentei Te Esquecer-B. Passarela
TTITLE7=É Ficar Ou Partir-B. Passarela
TTITLE8=Em Nome Do Amor--B. Passarela
TTITLE9=Amores De Verão--B. Passarela
TTITLE10=Tardes De Verão-B. Passarela
TTITLE11=A Ti Papai-B. Passarela
EXTD=
EXTT0=
EXTT1=
EXTT2=
EXTT3=
EXTT4=
EXTT5=
EXTT6=
EXTT7=
EXTT8=
EXTT9=
EXTT10=
EXTT11=
PLAYORDER=
